<?xml version="1.0" encoding="utf-8"?>
<!-- Generator: Adobe Illustrator 23.1.0, SVG Export Plug-In . SVG Version: 6.00 Build 0)  -->
<svg version="1.1" id="Layer_1" xmlns="http://www.w3.org/2000/svg" xmlns:xlink="http://www.w3.org/1999/xlink" x="0px" y="0px"
	 viewBox="0 0 136 40" style="enable-background:new 0 0 136 40;" xml:space="preserve">
<style type="text/css">
	.st0{fill:#FFFFFF;stroke:#FFFFFF;stroke-width:0.2509;stroke-miterlimit:10;}
	.st1{fill:#FFFFFF;}
	.st2{fill:url(#SVGID_1_);}
	.st3{fill:url(#SVGID_2_);}
	.st4{fill:url(#SVGID_3_);}
	.st5{fill:url(#SVGID_4_);}
	.st6{opacity:0.2;enable-background:new    ;}
	.st7{opacity:0.12;enable-background:new    ;}
	.st8{opacity:0.25;fill:#FFFFFF;enable-background:new    ;}
</style>
<title>Download_on_the_App_Store_Badge_US-UK_RGB_wht_092917</title>
<g>
	<g>
		<path class="st0" d="M47.98,10.62c0,0.78-0.23,1.48-0.7,1.95c-0.55,0.55-1.25,0.86-2.19,0.86c-0.86,0-1.56-0.31-2.19-0.86
			c-0.63-0.63-0.86-1.33-0.86-2.19s0.31-1.56,0.86-2.19c0.63-0.55,1.33-0.86,2.19-0.86c0.39,0,0.86,0.08,1.25,0.23
			c0.39,0.16,0.7,0.39,0.94,0.63l-0.55,0.55c-0.39-0.47-0.94-0.7-1.64-0.7c-0.63,0-1.17,0.23-1.64,0.63
			c-0.47,0.47-0.7,1.02-0.7,1.72c0,0.7,0.23,1.25,0.7,1.72c0.47,0.47,1.02,0.63,1.64,0.63s1.17-0.23,1.64-0.63
			c0.31-0.31,0.47-0.7,0.47-1.17h-2.11v-0.7h2.89C47.98,10.31,47.98,10.47,47.98,10.62z"/>
		<path class="st0" d="M52.51,8.2h-2.66V10h2.42v0.7h-2.42v1.88h2.66v0.7h-3.44V7.5h3.44V8.2z"/>
		<path class="st0" d="M55.72,13.36h-0.78V8.2H53.3V7.5h4.06v0.7h-1.64V13.36L55.72,13.36z"/>
		<path class="st0" d="M60.33,13.36V7.5h0.78v5.86H60.33z"/>
		<path class="st0" d="M64.47,13.36h-0.78V8.2h-1.64V7.5h4.06v0.7h-1.64V13.36z"/>
		<path class="st0" d="M73.77,12.58c-0.55,0.55-1.33,0.86-2.19,0.86c-0.86,0-1.56-0.31-2.19-0.86c-0.55-0.63-0.86-1.33-0.86-2.19
			s0.31-1.56,0.86-2.19c0.55-0.63,1.33-0.86,2.19-0.86c0.86,0,1.56,0.31,2.19,0.86c0.55,0.63,0.86,1.33,0.86,2.19
			C74.63,11.25,74.31,11.95,73.77,12.58z M70.02,12.11c0.47,0.47,0.94,0.63,1.64,0.63c0.63,0,1.17-0.23,1.64-0.63
			c0.47-0.47,0.63-1.02,0.63-1.72s-0.23-1.25-0.63-1.72c-0.47-0.47-0.94-0.63-1.64-0.63c-0.63,0-1.17,0.23-1.64,0.63
			c-0.47,0.47-0.63,1.02-0.63,1.72S69.55,11.64,70.02,12.11z"/>
		<path class="st0" d="M75.72,13.36V7.5h0.94l2.89,4.53l0,0v-1.09V7.5h0.78v5.86h-0.78l-2.97-4.77l0,0v1.09v3.67H75.72z"/>
	</g>
	<path class="st1" d="M68.38,21.88c-2.34,0-4.22,1.72-4.22,4.14s1.88,4.14,4.22,4.14s4.22-1.8,4.22-4.14
		C72.59,23.59,70.72,21.88,68.38,21.88z M68.38,28.52c-1.25,0-2.34-1.02-2.34-2.5s1.09-2.5,2.34-2.5c1.25,0,2.34,1.02,2.34,2.5
		C70.72,27.5,69.63,28.52,68.38,28.52z M59.23,21.88c-2.34,0-4.22,1.72-4.22,4.14s1.88,4.14,4.22,4.14s4.22-1.8,4.22-4.14
		C63.37,23.59,61.5,21.88,59.23,21.88z M59.23,28.52c-1.25,0-2.34-1.02-2.34-2.5s1.09-2.5,2.34-2.5s2.34,1.02,2.34,2.5
		C61.58,27.5,60.48,28.52,59.23,28.52z M48.29,23.13v1.8h4.22c-0.16,1.02-0.47,1.72-0.94,2.19c-0.63,0.63-1.56,1.33-3.28,1.33
		c-2.58,0-4.69-2.11-4.69-4.69s2.03-4.69,4.69-4.69c1.41,0,2.42,0.55,3.2,1.25l1.25-1.25c-1.09-1.02-2.5-1.8-4.45-1.8
		c-3.59,0-6.56,2.89-6.56,6.49s3.05,6.49,6.56,6.49c1.95,0,3.36-0.63,4.53-1.8s1.56-2.81,1.56-4.14c0-0.39,0-0.78-0.08-1.09
		L48.29,23.13L48.29,23.13z M92.91,24.53c-0.31-0.94-1.41-2.66-3.59-2.66c-2.19,0-3.98,1.72-3.98,4.14c0,2.34,1.8,4.14,4.14,4.14
		c1.95,0,3.05-1.17,3.52-1.88l-1.41-0.94c-0.47,0.7-1.09,1.17-2.03,1.17c-0.94,0-1.64-0.39-2.03-1.25L93.14,25L92.91,24.53z
		 M87.21,25.86c-0.08-1.64,1.25-2.42,2.19-2.42c0.7,0,1.33,0.39,1.56,0.86L87.21,25.86z M82.67,29.92h1.88V17.73h-1.88V29.92z
		 M79.63,22.81L79.63,22.81c-0.47-0.47-1.25-0.94-2.27-0.94c-2.11,0-3.98,1.8-3.98,4.14c0,2.34,1.95,4.14,3.98,4.14
		c1.02,0,1.8-0.47,2.19-0.94h0.08v0.63c0,1.56-0.86,2.42-2.27,2.42c-1.09,0-1.8-0.78-2.11-1.48l-1.56,0.63
		c0.47,1.09,1.64,2.42,3.67,2.42c2.19,0,3.98-1.25,3.98-4.3v-7.42h-1.72V22.81L79.63,22.81z M77.52,28.52
		c-1.25,0-2.34-1.02-2.34-2.5s1.09-2.5,2.34-2.5c1.25,0,2.27,1.09,2.27,2.5C79.78,27.5,78.77,28.52,77.52,28.52z M101.51,17.73
		h-4.38v12.19h1.8v-4.61h2.58c2.03,0,4.06-1.48,4.06-3.83S103.54,17.73,101.51,17.73z M101.58,23.59H99v-4.22h2.58
		c1.41,0,2.19,1.09,2.19,2.11C103.69,22.42,102.91,23.59,101.58,23.59z M112.91,21.88c-1.33,0-2.73,0.55-3.28,1.88l1.64,0.7
		c0.31-0.7,1.02-0.86,1.64-0.86c0.94,0,1.95,0.55,1.95,1.56v0.16c-0.31-0.16-1.02-0.47-1.95-0.47c-1.72,0-3.52,0.94-3.52,2.73
		c0,1.64,1.41,2.66,3.05,2.66c1.25,0,1.95-0.55,2.34-1.17h0.08V30h1.8v-4.69C116.66,23.05,115.02,21.88,112.91,21.88z M112.68,28.52
		c-0.63,0-1.41-0.31-1.41-1.02c0-0.94,1.02-1.33,1.95-1.33c0.78,0,1.17,0.16,1.64,0.39C114.71,27.74,113.77,28.52,112.68,28.52z
		 M123.07,22.11l-2.11,5.31h-0.08l-2.19-5.31h-1.95l3.28,7.42l-1.88,4.14h1.88l5.08-11.49L123.07,22.11L123.07,22.11z M106.58,29.92
		h1.8V17.73h-1.8V29.92z"/>
	<g>
		
			<linearGradient id="SVGID_1_" gradientUnits="userSpaceOnUse" x1="22.7728" y1="53.9279" x2="6.3201" y2="37.4753" gradientTransform="matrix(1 0 0 -1 0 63)">
			<stop  offset="0" style="stop-color:#00A0FF"/>
			<stop  offset="6.599999e-03" style="stop-color:#00A1FF"/>
			<stop  offset="0.2601" style="stop-color:#00BEFF"/>
			<stop  offset="0.5122" style="stop-color:#00D2FF"/>
			<stop  offset="0.7604" style="stop-color:#00DFFF"/>
			<stop  offset="1" style="stop-color:#00E3FF"/>
		</linearGradient>
		<path class="st2" d="M11.57,7.97c-0.31,0.31-0.47,0.78-0.47,1.41v21.57c0,0.63,0.16,1.09,0.47,1.41l0.08,0.08l12.19-12.11v-0.16
			V20L11.57,7.97L11.57,7.97z"/>
		
			<linearGradient id="SVGID_2_" gradientUnits="userSpaceOnUse" x1="34.6256" y1="42.8822" x2="10.8173" y2="42.8822" gradientTransform="matrix(1 0 0 -1 0 63)">
			<stop  offset="0" style="stop-color:#FFE000"/>
			<stop  offset="0.4087" style="stop-color:#FFBD00"/>
			<stop  offset="0.7754" style="stop-color:#FFA500"/>
			<stop  offset="1" style="stop-color:#FF9C00"/>
		</linearGradient>
		<path class="st3" d="M27.9,24.3l-4.06-4.06v-0.08V20l4.06-4.06l0.08,0.08l4.84,2.73c1.41,0.78,1.41,2.03,0,2.81l-4.84,2.73H27.9z"
			/>
		
			<linearGradient id="SVGID_3_" gradientUnits="userSpaceOnUse" x1="25.7587" y1="40.6225" x2="3.4185" y2="18.2824" gradientTransform="matrix(1 0 0 -1 0 63)">
			<stop  offset="0" style="stop-color:#FF3A44"/>
			<stop  offset="1" style="stop-color:#C31162"/>
		</linearGradient>
		<path class="st4" d="M28.06,24.3l-4.22-4.14L11.57,32.35c0.47,0.47,1.17,0.55,2.03,0.08L28.06,24.3"/>
		
			<linearGradient id="SVGID_4_" gradientUnits="userSpaceOnUse" x1="8.5728" y1="62.2888" x2="18.5471" y2="52.3145" gradientTransform="matrix(1 0 0 -1 0 63)">
			<stop  offset="0" style="stop-color:#32A071"/>
			<stop  offset="0.0685" style="stop-color:#2DA771"/>
			<stop  offset="0.4762" style="stop-color:#15CF74"/>
			<stop  offset="0.8009" style="stop-color:#06E775"/>
			<stop  offset="1" style="stop-color:#00F076"/>
		</linearGradient>
		<path class="st5" d="M28.06,16.02L13.68,7.89c-0.86-0.47-1.56-0.39-2.03,0.08l12.19,12.19L28.06,16.02z"/>
		<g>
			<path class="st6" d="M27.9,24.22l-14.22,8.05c-0.78,0.47-1.48,0.39-1.95,0l0,0l-0.08,0.08l0,0l0.08,0.08l0,0
				c0.47,0.39,1.17,0.47,1.95,0l14.38-8.13L27.9,24.22z"/>
			<path class="st7" d="M11.57,32.19c-0.31-0.31-0.47-0.78-0.47-1.41v0.16c0,0.63,0.16,1.09,0.47,1.41V32.19L11.57,32.19z"/>
		</g>
		<path class="st7" d="M32.82,21.41l-4.92,2.81l0.08,0.08l4.84-2.73c0.7-0.39,1.02-0.86,1.02-1.41l0,0
			C33.84,20.63,33.45,21.09,32.82,21.41z"/>
		<path class="st8" d="M13.68,8.05L32.9,18.91c0.63,0.31,0.94,0.78,1.02,1.25l0,0c0-0.55-0.31-1.02-1.02-1.41L13.68,7.89
			c-1.41-0.78-2.5-0.16-2.5,1.41v0.16C11.18,7.97,12.27,7.26,13.68,8.05z"/>
	</g>
</g>
</svg>
