<?xml version="1.0" encoding="utf-8"?>
<!-- Generator: Adobe Illustrator 23.1.0, SVG Export Plug-In . SVG Version: 6.00 Build 0)  -->
<svg version="1.1" id="Layer_1" xmlns="http://www.w3.org/2000/svg" xmlns:xlink="http://www.w3.org/1999/xlink" x="0px" y="0px"
	 viewBox="0 0 136 40" style="enable-background:new 0 0 136 40;" xml:space="preserve">
<style type="text/css">
	.st0{fill:#FFFFFF;}
</style>
<g>
	<g>
		<g id="_Group_">
			<g id="_Group_2">
				<g id="_Group_3">
					<path id="_Path_" class="st0" d="M29.19,19.09c0-1.98,1.07-3.88,2.81-4.96c-1.07-1.57-2.81-2.48-4.71-2.56
						c-1.98-0.25-3.88,1.16-4.96,1.16c-1.07,0-2.56-1.16-4.3-1.16c-2.23,0.08-4.22,1.32-5.29,3.22c-2.31,3.97-0.58,9.84,1.65,13.06
						c1.07,1.57,2.4,3.31,4.05,3.31c1.65-0.08,2.23-1.07,4.22-1.07s2.56,1.07,4.3,0.99c1.74,0,2.89-1.57,3.97-3.14
						c0.83-1.16,1.41-2.4,1.82-3.64C30.52,23.39,29.19,21.32,29.19,19.09z"/>
					<path id="_Path_2" class="st0" d="M25.97,9.5c0.99-1.16,1.41-2.65,1.32-4.13c-1.49,0.17-2.81,0.83-3.8,1.98
						C22.5,8.43,22,9.92,22.17,11.32C23.57,11.32,24.98,10.66,25.97,9.5z"/>
				</g>
			</g>
			<g>
				<path class="st0" d="M48.95,27.36h-5.37l-1.32,3.8h-2.31l5.12-14.13h2.4l5.12,14.13h-2.31L48.95,27.36z M44.07,25.62h4.3
					l-2.07-6.28h-0.08L44.07,25.62z"/>
				<path class="st0" d="M63.58,26.03c0,3.22-1.74,5.29-4.3,5.29c-1.32,0.08-2.65-0.66-3.22-1.82h-0.08v5.12h-2.15v-13.8h2.07v1.74
					l0,0c0.66-1.16,1.9-1.9,3.31-1.82C61.84,20.74,63.58,22.81,63.58,26.03z M61.43,26.03c0-2.07-1.07-3.47-2.73-3.47
					s-2.73,1.41-2.73,3.47s1.07,3.47,2.73,3.47C60.35,29.51,61.43,28.1,61.43,26.03L61.43,26.03z"/>
				<path class="st0" d="M74.98,26.03c0,3.22-1.74,5.29-4.3,5.29c-1.32,0.08-2.65-0.66-3.22-1.82h-0.08v5.12h-2.15v-13.8h2.07v1.74
					l0,0c0.66-1.16,1.9-1.9,3.31-1.82C73.25,20.74,74.98,22.81,74.98,26.03z M72.84,26.03c0-2.07-1.07-3.47-2.73-3.47
					c-1.65,0-2.73,1.41-2.73,3.47s1.07,3.47,2.73,3.47C71.76,29.51,72.84,28.1,72.84,26.03z"/>
				<path class="st0" d="M82.51,27.19c0.17,1.41,1.49,2.31,3.39,2.31c1.82,0,3.06-0.91,3.06-2.15c0-1.07-0.74-1.74-2.65-2.23
					l-1.82-0.41c-2.56-0.66-3.8-1.82-3.8-3.8c0-2.48,2.15-4.13,5.12-4.13c2.98,0,5.04,1.65,5.12,4.13h-2.15
					c-0.17-1.41-1.32-2.23-2.98-2.23c-1.74,0-2.89,0.83-2.89,2.15c0,0.99,0.74,1.57,2.56,2.07l1.57,0.41
					c2.89,0.66,4.13,1.82,4.13,3.97c0,2.65-2.15,4.3-5.46,4.3c-3.14,0-5.29-1.65-5.37-4.22L82.51,27.19L82.51,27.19z"/>
				<path class="st0" d="M95.81,18.43v2.48h1.98v1.65h-1.98v5.7c0,0.91,0.41,1.32,1.24,1.32c0.25,0,0.5,0,0.66-0.08v1.65
					c-0.41,0.08-0.74,0.08-1.16,0.08c-2.07,0-2.89-0.83-2.89-2.81v-5.95h-1.49v-1.65h1.49v-2.48h2.15V18.43z"/>
				<path class="st0" d="M98.87,26.03c0-3.22,1.9-5.29,4.88-5.29c2.98,0,4.88,2.07,4.88,5.29s-1.9,5.29-4.88,5.29
					C100.77,31.32,98.87,29.26,98.87,26.03z M106.56,26.03c0-2.23-0.99-3.55-2.73-3.55s-2.73,1.32-2.73,3.55s0.99,3.55,2.73,3.55
					C105.48,29.59,106.56,28.27,106.56,26.03z"/>
				<path class="st0" d="M110.44,20.83h1.98v1.74h0.08c0.25-1.16,1.32-1.9,2.48-1.9c0.25,0,0.5,0,0.74,0.08v2.07
					c-0.33-0.08-0.66-0.17-0.99-0.17c-1.16-0.08-2.15,0.91-2.23,2.07c0,0.08,0,0.25,0,0.33v6.12h-2.15L110.44,20.83L110.44,20.83z"
					/>
				<path class="st0" d="M125.49,28.18c-0.25,1.9-2.15,3.14-4.46,3.14c-2.98,0-4.88-1.98-4.88-5.21s1.9-5.37,4.79-5.37
					c2.89,0,4.63,1.98,4.63,5.12v0.74h-7.27v0.17c-0.17,1.49,0.99,2.81,2.48,2.89c0.08,0,0.25,0,0.33,0c0.99,0.08,1.98-0.5,2.4-1.49
					L125.49,28.18L125.49,28.18z M118.3,25.04h5.12c0.08-1.41-0.99-2.56-2.31-2.65c-0.08,0-0.17,0-0.17,0
					C119.54,22.4,118.38,23.55,118.3,25.04L118.3,25.04L118.3,25.04z"/>
			</g>
		</g>
	</g>
	<g id="_Group_4">
		<g>
			<path class="st0" d="M43.82,6.36c1.65-0.08,3.14,1.16,3.22,2.81c0,0.17,0,0.41,0,0.58c0,2.15-1.16,3.39-3.22,3.39h-2.48V6.36
				H43.82L43.82,6.36z M42.42,12.15h1.32c1.16,0.08,2.23-0.83,2.23-1.98c0-0.17,0-0.33,0-0.41c0.17-1.16-0.66-2.23-1.82-2.4
				c-0.17,0-0.25,0-0.41,0h-1.32C42.42,7.27,42.42,12.15,42.42,12.15z"/>
			<path class="st0" d="M48.2,10.58c-0.17-1.32,0.83-2.56,2.23-2.65c1.32-0.17,2.56,0.83,2.65,2.23c0,0.17,0,0.33,0,0.5
				c0.17,1.32-0.83,2.56-2.15,2.65c-1.32,0.17-2.56-0.83-2.65-2.15C48.2,10.91,48.2,10.74,48.2,10.58z M52.01,10.58
				c0-1.07-0.5-1.74-1.41-1.74c-0.91,0-1.41,0.66-1.41,1.74c0,1.16,0.5,1.74,1.41,1.74C51.51,12.31,52.01,11.73,52.01,10.58
				L52.01,10.58z"/>
			<path class="st0" d="M59.53,13.14h-1.07l-1.07-3.8H57.3l-1.07,3.8h-1.07l-1.41-5.12h0.99l0.91,3.88h0.08l1.07-3.88h1.07
				l1.07,3.88h0.08l0.91-3.88h0.99L59.53,13.14z"/>
			<path class="st0" d="M62.09,8.01h0.99v0.83h0.08c0.25-0.58,0.91-0.99,1.57-0.91c0.91-0.08,1.74,0.66,1.82,1.57
				c0,0.08,0,0.25,0,0.33v3.31h-0.99v-3.06c0-0.83-0.33-1.24-1.07-1.24c-0.66,0-1.24,0.5-1.24,1.16c0,0.08,0,0.08,0,0.17v2.98h-0.99
				C62.09,13.14,62.09,8.01,62.09,8.01z"/>
			<path class="st0" d="M68.12,6.03h0.99v7.11h-0.99V6.03z"/>
			<path class="st0" d="M70.52,10.58c-0.17-1.32,0.83-2.56,2.23-2.65c1.32-0.17,2.56,0.83,2.65,2.23c0,0.17,0,0.33,0,0.5
				c0.17,1.32-0.83,2.56-2.15,2.65c-1.32,0.17-2.56-0.83-2.65-2.15C70.52,10.91,70.52,10.74,70.52,10.58z M74.32,10.58
				c0-1.07-0.5-1.74-1.41-1.74s-1.41,0.66-1.41,1.74c0,1.16,0.5,1.74,1.41,1.74C73.83,12.31,74.32,11.73,74.32,10.58z"/>
			<path class="st0" d="M76.47,11.73c0-0.91,0.66-1.49,1.9-1.57l1.41-0.08V9.67c0-0.58-0.33-0.83-1.07-0.83
				c-0.58,0-0.99,0.25-1.07,0.58h-0.99c0.08-0.91,0.91-1.49,2.07-1.49c1.32,0,1.98,0.66,1.98,1.74v3.47H79.7V12.4h-0.08
				c-0.33,0.5-0.91,0.83-1.57,0.83c-0.83,0.08-1.65-0.5-1.74-1.41C76.47,11.82,76.47,11.73,76.47,11.73z M79.78,11.24v-0.41
				l-1.24,0.08c-0.74,0.08-0.99,0.25-0.99,0.74s0.41,0.74,0.99,0.74C79.12,12.48,79.7,11.98,79.78,11.24
				C79.78,11.32,79.78,11.24,79.78,11.24z"/>
			<path class="st0" d="M82.09,10.58c0-1.65,0.83-2.65,2.15-2.65c0.66,0,1.24,0.33,1.57,0.91h0.08V6.03h0.99v7.11H85.9v-0.83h-0.08
				c-0.33,0.58-0.99,0.91-1.65,0.91C82.92,13.22,82.09,12.23,82.09,10.58z M83.17,10.58c0,1.07,0.5,1.74,1.41,1.74
				c0.83,0,1.41-0.66,1.41-1.74s-0.5-1.74-1.41-1.74C83.66,8.84,83.17,9.5,83.17,10.58L83.17,10.58z"/>
			<path class="st0" d="M91.1,10.58c-0.17-1.32,0.83-2.56,2.23-2.65c1.32-0.17,2.56,0.83,2.65,2.23c0,0.17,0,0.33,0,0.5
				c0.17,1.32-0.83,2.56-2.15,2.65c-1.32,0.17-2.56-0.83-2.65-2.15C91.1,10.91,91.1,10.74,91.1,10.58z M94.9,10.58
				c0-1.07-0.5-1.74-1.41-1.74c-0.91,0-1.41,0.66-1.41,1.74c0,1.16,0.5,1.74,1.41,1.74C94.41,12.31,94.9,11.73,94.9,10.58z"/>
			<path class="st0" d="M97.3,8.01h0.99v0.83h0.08c0.25-0.58,0.91-0.99,1.57-0.91c0.91-0.08,1.74,0.66,1.82,1.57
				c0,0.08,0,0.25,0,0.33v3.31h-0.99v-3.06c0-0.83-0.33-1.24-1.07-1.24c-0.66,0-1.24,0.5-1.24,1.16c0,0.08,0,0.08,0,0.17v2.98h-0.99
				L97.3,8.01L97.3,8.01z"/>
			<path class="st0" d="M107.39,6.69v1.32h1.07v0.83h-1.07v2.65c0,0.58,0.25,0.74,0.74,0.74c0.17,0,0.25,0,0.41,0v0.83
				c-0.17,0-0.33,0.08-0.58,0.08c-1.16,0-1.57-0.41-1.57-1.41V8.84h-0.83V8.01h0.83V6.69H107.39z"/>
			<path class="st0" d="M109.87,6.03h0.99v2.81h0.08c0.25-0.58,0.91-0.99,1.57-0.91c0.91-0.08,1.74,0.66,1.82,1.57
				c0,0.08,0,0.25,0,0.33v3.31h-0.99v-3.06c0-0.83-0.41-1.24-1.07-1.24c-0.66-0.08-1.24,0.41-1.32,1.07c0,0.08,0,0.17,0,0.17v2.98
				h-0.99L109.87,6.03L109.87,6.03z"/>
			<path class="st0" d="M120.2,11.73c-0.25,0.99-1.24,1.57-2.23,1.49c-1.32,0-2.4-0.99-2.4-2.23c0-0.17,0-0.25,0-0.41
				c-0.17-1.32,0.74-2.48,2.07-2.65c0.08,0,0.25,0,0.33,0c1.41,0,2.31,0.99,2.31,2.56v0.33h-3.64v0.08
				c-0.08,0.74,0.5,1.41,1.24,1.49c0.08,0,0.08,0,0.17,0c0.5,0.08,0.99-0.17,1.24-0.66L120.2,11.73L120.2,11.73z M116.64,10.08h2.56
				c0.08-0.66-0.5-1.24-1.16-1.32h-0.08C117.3,8.76,116.64,9.34,116.64,10.08L116.64,10.08L116.64,10.08z"/>
		</g>
	</g>
</g>
<title>Download_on_the_App_Store_Badge_US-UK_RGB_wht_092917</title>
</svg>
